{
  "source": "C:\\Users\\Peter\\Desktop\\stuff\\MIUN\\quantitative_research\\video_compression\\videos\\HEVC_CLASS_B\\BQTerrace_1920x1080_60.y4m",
  "output": "C:\\Users\\Peter\\Desktop\\stuff\\MIUN\\quantitative_research\\video_compression\\compressed_videos\\HEVC_CLASS_B\\av1\\2.5\\BQTerrace_1920x1080_60_av1.mkv",
  "codec": "av1",
  "ok": "Input #0, yuv4mpegpipe, from 'C:\\Users\\Peter\\Desktop\\stuff\\MIUN\\quantitative_research\\video_compression\\videos\\HEVC_CLASS_B\\BQTerrace_1920x1080_60.y4m':\n  Duration: 00:00:10.00, start: 0.000000, bitrate: 1492994 kb/s\n  Stream #0:0: Video: rawvideo (I420 / 0x30323449), yuv420p(progressive), 1920x1080, 60 fps, 60 tbr, 60 tbn\n[out#0/matroska @ 00000287d6ec8ec0] Codec AVOption b:a (set bitrate (in bits/s)) has not been used for any stream. The most likely reason is either wrong type (e.g. a video option with no video streams) or that it is a private option of some decoder which was not actually used for any stream.\nStream mapping:\n  Stream #0:0 -> #0:0 (rawvideo (native) -> av1 (libsvtav1))\nPress [q] to stop, [?] for help\nSvt[info]: -------------------------------------------\nSvt[info]: SVT [version]:\tSVT-AV1 Encoder Lib v3.1.0-19-g6ecfe8ec\nSvt[info]: SVT [build]  :\tGCC 15.2.0\t 64 bit\nSvt[info]: LIB Build date: Aug 17 2025 11:37:13\nSvt[info]: -------------------------------------------\n[libsvtav1 @ 00000287d6ecc080] Specified chroma sample location center is unsupported on the AV1 bit stream level. Usage of a container that allows passing this information - such as Matroska - is recommended.\nSvt[info]: Level of Parallelism: 5\nSvt[info]: Number of PPCS 93\nSvt[info]: [asm level on system : up to avx2]\nSvt[info]: [asm level selected : up to avx2]\nSvt[info]: -------------------------------------------\nSvt[info]: SVT [config]: main profile\ttier (auto)\tlevel (auto)\nSvt[info]: SVT [config]: width / height / fps numerator / fps denominator \t\t: 1920 / 1080 / 60 / 1\nSvt[info]: SVT [config]: bit-depth / color format \t\t\t\t\t: 8 / YUV420\nSvt[info]: SVT [config]: preset / tune / pred struct \t\t\t\t\t: 4 / PSNR / random access\nSvt[info]: SVT [config]: gop size / mini-gop size / key-frame type \t\t\t: 321 / 16 / key frame\nSvt[info]: SVT [config]: BRC mode / target bitrate (kbps)\t\t\t\t: VBR / 2500 \nSvt[info]: SVT [config]: AQ mode / Variance Boost \t\t\t\t\t: 2 / 0\nSvt[info]: SVT [config]: sharpness / luminance-based QP bias \t\t\t\t: 0 / 0\nSvt[info]: SVT [config]: QP scale compress strength \t\t\t\t\t: 0\nSvt[info]: -------------------------------------------\nOutput #0, matroska, to 'C:\\Users\\Peter\\Desktop\\stuff\\MIUN\\quantitative_research\\video_compression\\compressed_videos\\HEVC_CLASS_B\\av1\\2.5\\BQTerrace_1920x1080_60_av1.mkv':\n  Metadata:\n    encoder         : Lavf62.3.100\n  Stream #0:0: Video: av1 (AV01 / 0x31305641), yuv420p(tv, progressive), 1920x1080, q=2-31, 2500 kb/s, 60 fps, 1k tbn\n    Metadata:\n      encoder         : Lavc62.11.100 libsvtav1\n    Side data:\n      cpb: bitrate max/min/avg: 0/0/2500000 buffer size: 2500000 vbv_delay: N/A\nframe=    0 fps=0.0 q=0.0 size=       0KiB time=N/A bitrate=N/A speed=N/A elapsed=0:00:02.56    \nframe=    0 fps=0.0 q=0.0 size=       0KiB time=N/A bitrate=N/A speed=N/A elapsed=0:00:03.26    \nframe=    0 fps=0.0 q=0.0 size=       0KiB time=N/A bitrate=N/A speed=N/A elapsed=0:00:03.85    \nframe=    0 fps=0.0 q=0.0 size=       0KiB time=N/A bitrate=N/A speed=N/A elapsed=0:00:04.51    \nframe=    0 fps=0.0 q=0.0 size=       0KiB time=N/A bitrate=N/A speed=N/A elapsed=0:00:05.02    \nframe=    0 fps=0.0 q=0.0 size=       0KiB time=N/A bitrate=N/A speed=N/A elapsed=0:00:05.58    \nframe=    0 fps=0.0 q=0.0 size=       0KiB time=N/A bitrate=N/A speed=N/A elapsed=0:00:06.10    \nframe=    0 fps=0.0 q=0.0 size=       0KiB time=N/A bitrate=N/A speed=N/A elapsed=0:00:06.62    \nframe=    0 fps=0.0 q=0.0 size=       0KiB time=N/A bitrate=N/A speed=N/A elapsed=0:00:07.24    \nframe=    0 fps=0.0 q=0.0 size=       0KiB time=N/A bitrate=N/A speed=N/A elapsed=0:00:07.77    \nframe=    0 fps=0.0 q=0.0 size=       0KiB time=N/A bitrate=N/A speed=N/A elapsed=0:00:08.32    \nframe=    0 fps=0.0 q=0.0 size=       0KiB time=N/A bitrate=N/A speed=N/A elapsed=0:00:08.84    \nframe=    0 fps=0.0 q=0.0 size=       0KiB time=N/A bitrate=N/A speed=N/A elapsed=0:00:09.39    \nframe=    0 fps=0.0 q=0.0 size=       0KiB time=N/A bitrate=N/A speed=N/A elapsed=0:00:09.95    \nframe=    0 fps=0.0 q=0.0 size=       0KiB time=N/A bitrate=N/A speed=N/A elapsed=0:00:10.47    \nframe=    0 fps=0.0 q=0.0 size=       0KiB time=N/A bitrate=N/A speed=N/A elapsed=0:00:11.00    \nframe=    0 fps=0.0 q=0.0 size=       0KiB time=N/A bitrate=N/A speed=N/A elapsed=0:00:11.52    \nframe=    0 fps=0.0 q=0.0 size=       0KiB time=N/A bitrate=N/A speed=N/A elapsed=0:00:12.04    \nframe=    0 fps=0.0 q=0.0 size=       0KiB time=N/A bitrate=N/A speed=N/A elapsed=0:00:12.54    \nframe=    0 fps=0.0 q=0.0 size=       0KiB time=N/A bitrate=N/A speed=N/A elapsed=0:00:13.06    \nframe=    1 fps=0.1 q=24.0 size=       1KiB time=00:00:00.00 bitrate=N/A speed=   0x elapsed=0:00:13.58    \nframe=    1 fps=0.1 q=24.0 size=       1KiB time=00:00:00.00 bitrate=N/A speed=   0x elapsed=0:00:14.12    \nframe=    1 fps=0.1 q=24.0 size=       1KiB time=00:00:00.00 bitrate=N/A speed=   0x elapsed=0:00:14.66    \nframe=    1 fps=0.1 q=24.0 size=       1KiB time=00:00:00.00 bitrate=N/A speed=   0x elapsed=0:00:15.20    \nframe=    1 fps=0.1 q=24.0 size=       1KiB time=00:00:00.00 bitrate=N/A speed=   0x elapsed=0:00:15.73    \nframe=    1 fps=0.1 q=24.0 size=       1KiB time=00:00:00.00 bitrate=N/A speed=   0x elapsed=0:00:16.24    \nframe=    1 fps=0.1 q=24.0 size=       1KiB time=00:00:00.00 bitrate=N/A speed=   0x elapsed=0:00:16.75    \nframe=    1 fps=0.1 q=24.0 size=       1KiB time=00:00:00.00 bitrate=N/A speed=   0x elapsed=0:00:17.29    \nframe=    1 fps=0.1 q=24.0 size=       1KiB time=00:00:00.00 bitrate=N/A speed=   0x elapsed=0:00:17.82    \nframe=    1 fps=0.1 q=24.0 size=       1KiB time=00:00:00.00 bitrate=N/A speed=   0x elapsed=0:00:18.41    \nframe=    2 fps=0.1 q=53.0 size=       1KiB time=00:00:00.01 bitrate= 268.8kbits/s speed=0.000879x elapsed=0:00:18.97    \nframe=    4 fps=0.2 q=53.0 size=       1KiB time=00:00:00.05 bitrate=  89.6kbits/s speed=0.00256x elapsed=0:00:19.56    \nframe=    6 fps=0.3 q=50.0 size=       1KiB time=00:00:00.08 bitrate=  53.8kbits/s speed=0.00414x elapsed=0:00:20.11    \nframe=    7 fps=0.3 q=50.0 size=       1KiB time=00:00:00.10 bitrate=  44.8kbits/s speed=0.00485x elapsed=0:00:20.62    \nframe=    9 fps=0.4 q=46.0 size=       1KiB time=00:00:00.13 bitrate=  33.6kbits/s speed=0.00629x elapsed=0:00:21.20    \nframe=   10 fps=0.5 q=48.0 size=       1KiB time=00:00:00.15 bitrate=  29.9kbits/s speed=0.0069x elapsed=0:00:21.73    \nframe=   12 fps=0.5 q=48.0 size=       1KiB time=00:00:00.18 bitrate=  24.4kbits/s speed=0.00823x elapsed=0:00:22.27    \nframe=   14 fps=0.6 q=47.0 size=       1KiB time=00:00:00.21 bitrate=  20.7kbits/s speed=0.00949x elapsed=0:00:22.82    \nframe=   14 fps=0.6 q=47.0 size=       1KiB time=00:00:00.21 bitrate=  20.7kbits/s speed=0.00928x elapsed=0:00:23.35    \nframe=   15 fps=0.6 q=47.0 size=       1KiB time=00:00:00.23 bitrate=  19.2kbits/s speed=0.00977x elapsed=0:00:23.87    \nframe=   15 fps=0.6 q=47.0 size=       1KiB time=00:00:00.23 bitrate=  19.2kbits/s speed=0.00955x elapsed=0:00:24.43    \nframe=   17 fps=0.7 q=32.0 size=       1KiB time=00:00:00.26 bitrate=  16.8kbits/s speed=0.0107x elapsed=0:00:24.97    \nframe=   18 fps=0.7 q=44.0 size=       1KiB time=00:00:00.28 bitrate=  15.8kbits/s speed=0.0111x elapsed=0:00:25.51    \nframe=   20 fps=0.8 q=43.0 size=       1KiB time=00:00:00.31 bitrate=  14.1kbits/s speed=0.0121x elapsed=0:00:26.06    \nframe=   22 fps=0.8 q=43.0 size=       1KiB time=00:00:00.35 bitrate=  12.8kbits/s speed=0.0131x elapsed=0:00:26.61    \nframe=   22 fps=0.8 q=43.0 size=       1KiB time=00:00:00.35 bitrate=  12.8kbits/s speed=0.0129x elapsed=0:00:27.14    \nframe=   23 fps=0.8 q=44.0 size=       1KiB time=00:00:00.36 bitrate=  12.2kbits/s speed=0.0132x elapsed=0:00:27.69    \nframe=   23 fps=0.8 q=44.0 size=       1KiB time=00:00:00.36 bitrate=  12.2kbits/s speed=0.013x elapsed=0:00:28.21    \nframe=   25 fps=0.9 q=39.0 size=       1KiB time=00:00:00.40 bitrate=  11.2kbits/s speed=0.0139x elapsed=0:00:28.78    \nframe=   27 fps=0.9 q=41.0 size=       1KiB time=00:00:00.43 bitrate=  10.3kbits/s speed=0.0148x elapsed=0:00:29.31    \nframe=   28 fps=0.9 q=40.0 size=       1KiB time=00:00:00.45 bitrate=  10.0kbits/s speed=0.0151x elapsed=0:00:29.83    \nframe=   30 fps=1.0 q=39.0 size=       1KiB time=00:00:00.48 bitrate=   9.3kbits/s speed=0.0159x elapsed=0:00:30.36    \nframe=   31 fps=1.0 q=40.0 size=       1KiB time=00:00:00.50 bitrate=   9.0kbits/s speed=0.0162x elapsed=0:00:30.89    \nframe=   32 fps=1.0 q=39.0 size=       1KiB time=00:00:00.51 bitrate=   8.7kbits/s speed=0.0164x elapsed=0:00:31.45    \nframe=   33 fps=1.0 q=32.0 size=       1KiB time=00:00:00.53 bitrate=   8.4kbits/s speed=0.0167x elapsed=0:00:31.97    \nframe=   34 fps=1.0 q=38.0 size=       1KiB time=00:00:00.55 bitrate=   8.1kbits/s speed=0.0169x elapsed=0:00:32.48    \nframe=   35 fps=1.1 q=41.0 size=       1KiB time=00:00:00.56 bitrate=   7.9kbits/s speed=0.0171x elapsed=0:00:33.04    \nframe=   36 fps=1.1 q=38.0 size=       1KiB time=00:00:00.58 bitrate=   7.7kbits/s speed=0.0174x elapsed=0:00:33.60    \nframe=   38 fps=1.1 q=37.0 size=       1KiB time=00:00:00.61 bitrate=   7.3kbits/s speed=0.0181x elapsed=0:00:34.11    \nframe=   38 fps=1.1 q=37.0 size=       1KiB time=00:00:00.61 bitrate=   7.3kbits/s speed=0.0178x elapsed=0:00:34.65    \nframe=   39 fps=1.1 q=41.0 size=       1KiB time=00:00:00.63 bitrate=   7.1kbits/s speed=0.018x elapsed=0:00:35.17    \nframe=   40 fps=1.1 q=38.0 size=       1KiB time=00:00:00.65 bitrate=   6.9kbits/s speed=0.0182x elapsed=0:00:35.71    \nframe=   40 fps=1.1 q=38.0 size=       1KiB time=00:00:00.65 bitrate=   6.9kbits/s speed=0.0179x elapsed=0:00:36.22    \nframe=   42 fps=1.1 q=37.0 size=       1KiB time=00:00:00.68 bitrate=   6.6kbits/s speed=0.0186x elapsed=0:00:36.73    \nframe=   42 fps=1.1 q=37.0 size=       1KiB time=00:00:00.68 bitrate=   6.6kbits/s speed=0.0183x elapsed=0:00:37.25    \nframe=   43 fps=1.1 q=41.0 size=       1KiB time=00:00:00.70 bitrate=   6.4kbits/s speed=0.0185x elapsed=0:00:37.81    \nframe=   45 fps=1.2 q=42.0 size=       1KiB time=00:00:00.73 bitrate=   6.1kbits/s speed=0.0191x elapsed=0:00:38.36    \nframe=   45 fps=1.2 q=42.0 size=       1KiB time=00:00:00.73 bitrate=   6.1kbits/s speed=0.0188x elapsed=0:00:38.90    \nframe=   46 fps=1.2 q=39.0 size=       1KiB time=00:00:00.75 bitrate=   6.0kbits/s speed=0.019x elapsed=0:00:39.51    \nframe=   47 fps=1.2 q=40.0 size=       1KiB time=00:00:00.76 bitrate=   5.8kbits/s speed=0.0192x elapsed=0:00:40.03    \nframe=   48 fps=1.2 q=38.0 size=       1KiB time=00:00:00.78 bitrate=   5.7kbits/s speed=0.0193x elapsed=0:00:40.60    \nframe=   49 fps=1.2 q=28.0 size=       1KiB time=00:00:00.80 bitrate=   5.6kbits/s speed=0.0195x elapsed=0:00:41.11    \nframe=   50 fps=1.2 q=39.0 size=       1KiB time=00:00:00.81 bitrate=   5.5kbits/s speed=0.0196x elapsed=0:00:41.63    \nframe=   51 fps=1.2 q=41.0 size=       1KiB time=00:00:00.83 bitrate=   5.4kbits/s speed=0.0198x elapsed=0:00:42.14    \nframe=   53 fps=1.2 q=42.0 size=       1KiB time=00:00:00.86 bitrate=   5.2kbits/s speed=0.0203x elapsed=0:00:42.68    \nframe=   54 fps=1.2 q=39.0 size=       1KiB time=00:00:00.88 bitrate=   5.1kbits/s speed=0.0204x elapsed=0:00:43.21    \nframe=   54 fps=1.2 q=39.0 size=       1KiB time=00:00:00.88 bitrate=   5.1kbits/s speed=0.0202x elapsed=0:00:43.77    \nframe=   55 fps=1.2 q=41.0 size=       1KiB time=00:00:00.90 bitrate=   5.0kbits/s speed=0.0203x elapsed=0:00:44.34    \nframe=   56 fps=1.2 q=38.0 size=       1KiB time=00:00:00.91 bitrate=   4.9kbits/s speed=0.0204x elapsed=0:00:44.88    \nframe=   57 fps=1.3 q=34.0 size=       1KiB time=00:00:00.93 bitrate=   4.8kbits/s speed=0.0206x elapsed=0:00:45.41    \nframe=   59 fps=1.3 q=41.0 size=       1KiB time=00:00:00.96 bitrate=   4.6kbits/s speed=0.021x elapsed=0:00:45.94    \nframe=   60 fps=1.3 q=37.0 size=       1KiB time=00:00:00.98 bitrate=   4.6kbits/s speed=0.0212x elapsed=0:00:46.47    \nframe=   63 fps=1.3 q=41.0 size=       1KiB time=00:00:01.03 bitrate=   4.3kbits/s speed=0.022x elapsed=0:00:46.99    \nframe=   63 fps=1.3 q=41.0 size=       1KiB time=00:00:01.03 bitrate=   4.3kbits/s speed=0.0217x elapsed=0:00:47.54    \nframe=   64 fps=1.3 q=38.0 size=       1KiB time=00:00:01.05 bitrate=   4.3kbits/s speed=0.0219x elapsed=0:00:48.05    \nframe=   64 fps=1.3 q=38.0 size=       1KiB time=00:00:01.05 bitrate=   4.3kbits/s speed=0.0216x elapsed=0:00:48.58    \nframe=   66 fps=1.3 q=39.0 size=       1KiB time=00:00:01.08 bitrate=   4.1kbits/s speed=0.022x elapsed=0:00:49.15    \nframe=   67 fps=1.3 q=41.0 size=       1KiB time=00:00:01.10 bitrate=   4.1kbits/s speed=0.0221x elapsed=0:00:49.73    \nframe=   68 fps=1.4 q=39.0 size=       1KiB time=00:00:01.10 bitrate=   4.1kbits/s speed=0.0219x elapsed=0:00:50.29    \nframe=   69 fps=1.4 q=42.0 size=       1KiB time=00:00:01.13 bitrate=   4.0kbits/s speed=0.0223x elapsed=0:00:50.90    \nframe=   70 fps=1.4 q=39.0 size=       1KiB time=00:00:01.15 bitrate=   3.9kbits/s speed=0.0224x elapsed=0:00:51.43    \nframe=   70 fps=1.3 q=39.0 size=       1KiB time=00:00:01.15 bitrate=   3.9kbits/s speed=0.0221x elapsed=0:00:51.98    \nframe=   71 fps=1.4 q=40.0 size=       1KiB time=00:00:01.16 bitrate=   3.8kbits/s speed=0.0222x elapsed=0:00:52.51    \nframe=   72 fps=1.4 q=39.0 size=       1KiB time=00:00:01.18 bitrate=   3.8kbits/s speed=0.0223x elapsed=0:00:53.06    \nframe=   73 fps=1.4 q=34.0 size=       1KiB time=00:00:01.20 bitrate=   3.7kbits/s speed=0.0224x elapsed=0:00:53.59    \nframe=   74 fps=1.4 q=39.0 size=       1KiB time=00:00:01.21 bitrate=   3.7kbits/s speed=0.0225x elapsed=0:00:54.13    \nframe=   75 fps=1.4 q=40.0 size=       1KiB time=00:00:01.23 bitrate=   3.6kbits/s speed=0.0226x elapsed=0:00:54.66    \nframe=   77 fps=1.4 q=42.0 size=       1KiB time=00:00:01.26 bitrate=   3.5kbits/s speed=0.0229x elapsed=0:00:55.24    \nframe=   79 fps=1.4 q=40.0 size=       1KiB time=00:00:01.30 bitrate=   3.4kbits/s speed=0.0233x elapsed=0:00:55.77    \nframe=   79 fps=1.4 q=40.0 size=       1KiB time=00:00:01.30 bitrate=   3.4kbits/s speed=0.0231x elapsed=0:00:56.31    \nframe=   80 fps=1.4 q=39.0 size=       1KiB time=00:00:01.31 bitrate=   3.4kbits/s speed=0.0232x elapsed=0:00:56.85    \nframe=   81 fps=1.4 q=24.0 size=       1KiB time=00:00:01.33 bitrate=   3.4kbits/s speed=0.0232x elapsed=0:00:57.42    \nframe=   83 fps=1.4 q=40.0 size=       1KiB time=00:00:01.36 bitrate=   3.3kbits/s speed=0.0236x elapsed=0:00:57.95    \nframe=   83 fps=1.4 q=40.0 size=       1KiB time=00:00:01.36 bitrate=   3.3kbits/s speed=0.0234x elapsed=0:00:58.51    \nframe=   84 fps=1.4 q=39.0 size=       1KiB time=00:00:01.38 bitrate=   3.2kbits/s speed=0.0234x elapsed=0:00:59.04    \nframe=   86 fps=1.4 q=39.0 size=       1KiB time=00:00:01.40 bitrate=   3.2kbits/s speed=0.0235x elapsed=0:00:59.55    \nframe=   86 fps=1.4 q=39.0 size=       1KiB time=00:00:01.41 bitrate=   3.2kbits/s speed=0.0236x elapsed=0:01:00.10    \nframe=   87 fps=1.4 q=40.0 size=       1KiB time=00:00:01.43 bitrate=   3.1kbits/s speed=0.0236x elapsed=0:01:00.65    \nframe=   88 fps=1.4 q=39.0 size=       1KiB time=00:00:01.45 bitrate=   3.1kbits/s speed=0.0237x elapsed=0:01:01.21    \nframe=   90 fps=1.5 q=40.0 size=       1KiB time=00:00:01.48 bitrate=   3.0kbits/s speed=0.024x elapsed=0:01:01.75    \nframe=   92 fps=1.5 q=40.0 size=       1KiB time=00:00:01.51 bitrate=   3.0kbits/s speed=0.0243x elapsed=0:01:02.29    \nframe=   93 fps=1.5 q=41.0 size=       1KiB time=00:00:01.53 bitrate=   2.9kbits/s speed=0.0244x elapsed=0:01:02.80    \nframe=   95 fps=1.5 q=39.0 size=       1KiB time=00:00:01.56 bitrate=   2.9kbits/s speed=0.0247x elapsed=0:01:03.31    \nframe=   96 fps=1.5 q=40.0 size=       1KiB time=00:00:01.58 bitrate=   2.8kbits/s speed=0.0248x elapsed=0:01:03.83    \nframe=   96 fps=1.5 q=40.0 size=       1KiB time=00:00:01.58 bitrate=   2.8kbits/s speed=0.0246x elapsed=0:01:04.39    \nframe=   98 fps=1.5 q=41.0 size=       1KiB time=00:00:01.61 bitrate=   2.8kbits/s speed=0.0249x elapsed=0:01:04.91    \nframe=   99 fps=1.5 q=41.0 size=       1KiB time=00:00:01.63 bitrate=   2.7kbits/s speed=0.0249x elapsed=0:01:05.47    \nframe=   99 fps=1.5 q=41.0 size=       1KiB time=00:00:01.63 bitrate=   2.7kbits/s speed=0.0247x elapsed=0:01:06.01    \nframe=  101 fps=1.5 q=41.0 size=       1KiB time=00:00:01.66 bitrate=   2.7kbits/s speed=0.025x elapsed=0:01:06.53    \nframe=  103 fps=1.5 q=41.0 size=       1KiB time=00:00:01.68 bitrate=   2.7kbits/s speed=0.0251x elapsed=0:01:07.05    \nframe=  103 fps=1.5 q=41.0 size=       1KiB time=00:00:01.70 bitrate=   2.6kbits/s speed=0.0251x elapsed=0:01:07.62    \nframe=  104 fps=1.5 q=41.0 size=       1KiB time=00:00:01.71 bitrate=   2.6kbits/s speed=0.0252x elapsed=0:01:08.20    \nframe=  105 fps=1.5 q=33.0 size=       1KiB time=00:00:01.73 bitrate=   2.6kbits/s speed=0.0252x elapsed=0:01:08.90    \nframe=  106 fps=1.5 q=42.0 size=       1KiB time=00:00:01.75 bitrate=   2.6kbits/s speed=0.0252x elapsed=0:01:09.44    \nframe=  108 fps=1.5 q=42.0 size=       1KiB time=00:00:01.78 bitrate=   2.5kbits/s speed=0.0255x elapsed=0:01:09.96    \nframe=  110 fps=1.6 q=42.0 size=       1KiB time=00:00:01.81 bitrate=   2.5kbits/s speed=0.0258x elapsed=0:01:10.50    \nframe=  112 fps=1.6 q=42.0 size=       1KiB time=00:00:01.85 bitrate=   2.4kbits/s speed=0.026x elapsed=0:01:11.06    \nframe=  112 fps=1.6 q=42.0 size=       1KiB time=00:00:01.85 bitrate=   2.4kbits/s speed=0.0258x elapsed=0:01:11.62    \nframe=  114 fps=1.6 q=41.0 size=       1KiB time=00:00:01.88 bitrate=   2.4kbits/s speed=0.0261x elapsed=0:01:12.16    \nframe=  115 fps=1.6 q=41.0 size=       1KiB time=00:00:01.90 bitrate=   2.4kbits/s speed=0.0261x elapsed=0:01:12.71    \nframe=  116 fps=1.6 q=41.0 size=       1KiB time=00:00:01.91 bitrate=   2.3kbits/s speed=0.0262x elapsed=0:01:13.24    \nframe=  118 fps=1.6 q=41.0 size=       1KiB time=00:00:01.95 bitrate=   2.3kbits/s speed=0.0264x elapsed=0:01:13.79    \nframe=  118 fps=1.6 q=41.0 size=       1KiB time=00:00:01.95 bitrate=   2.3kbits/s speed=0.0262x elapsed=0:01:14.35    \nframe=  120 fps=1.6 q=41.0 size=       1KiB time=00:00:01.98 bitrate=   2.3kbits/s speed=0.0265x elapsed=0:01:14.88    \nframe=  123 fps=1.6 q=41.0 size=       1KiB time=00:00:02.03 bitrate=   2.2kbits/s speed=0.0269x elapsed=0:01:15.45    \nframe=  124 fps=1.6 q=41.0 size=       1KiB time=00:00:02.05 bitrate=   2.2kbits/s speed=0.027x elapsed=0:01:16.01    \nframe=  126 fps=1.6 q=39.0 size=       1KiB time=00:00:02.06 bitrate=   2.2kbits/s speed=0.027x elapsed=0:01:16.56    \nframe=  127 fps=1.6 q=37.0 size=       1KiB time=00:00:02.10 bitrate=   2.1kbits/s speed=0.0272x elapsed=0:01:17.09    \nframe=  128 fps=1.6 q=38.0 size=       1KiB time=00:00:02.11 bitrate=   2.1kbits/s speed=0.0273x elapsed=0:01:17.61    \nframe=  129 fps=1.6 q=28.0 size=       1KiB time=00:00:02.13 bitrate=   2.1kbits/s speed=0.0273x elapsed=0:01:18.18    \nframe=  130 fps=1.7 q=42.0 size=       1KiB time=00:00:02.15 bitrate=   2.1kbits/s speed=0.0273x elapsed=0:01:18.73    \nframe=  131 fps=1.6 q=42.0 size=       1KiB time=00:00:02.16 bitrate=   2.1kbits/s speed=0.0273x elapsed=0:01:19.39    \nframe=  132 fps=1.7 q=42.0 size=       1KiB time=00:00:02.18 bitrate=   2.1kbits/s speed=0.0273x elapsed=0:01:19.92    \nframe=  132 fps=1.6 q=42.0 size=       1KiB time=00:00:02.18 bitrate=   2.1kbits/s speed=0.0271x elapsed=0:01:20.54    \nframe=  134 fps=1.7 q=42.0 size=       1KiB time=00:00:02.21 bitrate=   2.0kbits/s speed=0.0273x elapsed=0:01:21.08    \nframe=  134 fps=1.6 q=42.0 size=       1KiB time=00:00:02.21 bitrate=   2.0kbits/s speed=0.0272x elapsed=0:01:21.62    \nframe=  136 fps=1.7 q=42.0 size=       1KiB time=00:00:02.25 bitrate=   2.0kbits/s speed=0.0274x elapsed=0:01:22.16    \nframe=  137 fps=1.7 q=34.0 size=       1KiB time=00:00:02.26 bitrate=   2.0kbits/s speed=0.0274x elapsed=0:01:22.71    \nframe=  138 fps=1.7 q=41.0 size=       1KiB time=00:00:02.28 bitrate=   2.0kbits/s speed=0.0274x elapsed=0:01:23.26    \nframe=  140 fps=1.7 q=41.0 size=       1KiB time=00:00:02.31 bitrate=   1.9kbits/s speed=0.0277x elapsed=0:01:23.78    \nframe=  141 fps=1.7 q=41.0 size=       1KiB time=00:00:02.33 bitrate=   1.9kbits/s speed=0.0277x elapsed=0:01:24.32    \nframe=  144 fps=1.7 q=39.0 size=       1KiB time=00:00:02.38 bitrate=   1.9kbits/s speed=0.0281x elapsed=0:01:24.84    \nframe=  144 fps=1.7 q=39.0 size=       1KiB time=00:00:02.38 bitrate=   1.9kbits/s speed=0.0279x elapsed=0:01:25.37    \nframe=  146 fps=1.7 q=41.0 size=       1KiB time=00:00:02.41 bitrate=   1.9kbits/s speed=0.0281x elapsed=0:01:25.90    \nframe=  148 fps=1.7 q=41.0 size=       1KiB time=00:00:02.45 bitrate=   1.8kbits/s speed=0.0283x elapsed=0:01:26.44    \nframe=  150 fps=1.7 q=41.0 size=       1KiB time=00:00:02.48 bitrate=   1.8kbits/s speed=0.0286x elapsed=0:01:26.96    \nframe=  152 fps=1.7 q=41.0 size=       1KiB time=00:00:02.51 bitrate=   1.8kbits/s speed=0.0288x elapsed=0:01:27.51    \nframe=  153 fps=1.7 q=35.0 size=       1KiB time=00:00:02.53 bitrate=   1.8kbits/s speed=0.0288x elapsed=0:01:28.05    \nframe=  155 fps=1.7 q=40.0 size=       1KiB time=00:00:02.56 bitrate=   1.7kbits/s speed=0.029x elapsed=0:01:28.60    \nframe=  156 fps=1.8 q=40.0 size=       1KiB time=00:00:02.58 bitrate=   1.7kbits/s speed=0.029x elapsed=0:01:29.12    \nframe=  157 fps=1.8 q=40.0 size=       1KiB time=00:00:02.60 bitrate=   1.7kbits/s speed=0.029x elapsed=0:01:29.64    \nframe=  159 fps=1.8 q=36.0 size=       1KiB time=00:00:02.63 bitrate=   1.7kbits/s speed=0.0292x elapsed=0:01:30.20    \nframe=  160 fps=1.8 q=38.0 size=       1KiB time=00:00:02.65 bitrate=   1.7kbits/s speed=0.0292x elapsed=0:01:30.74    \nframe=  161 fps=1.8 q=28.0 size=       1KiB time=00:00:02.66 bitrate=   1.7kbits/s speed=0.0292x elapsed=0:01:31.25    \nframe=  163 fps=1.8 q=40.0 size=       1KiB time=00:00:02.70 bitrate=   1.7kbits/s speed=0.0294x elapsed=0:01:31.77    \nframe=  164 fps=1.8 q=40.0 size=       1KiB time=00:00:02.71 bitrate=   1.6kbits/s speed=0.0294x elapsed=0:01:32.35    \nframe=  166 fps=1.8 q=40.0 size=       1KiB time=00:00:02.75 bitrate=   1.6kbits/s speed=0.0296x elapsed=0:01:32.86    \nframe=  166 fps=1.8 q=40.0 size=       1KiB time=00:00:02.75 bitrate=   1.6kbits/s speed=0.0294x elapsed=0:01:33.43    \nframe=  168 fps=1.8 q=40.0 size=       1KiB time=00:00:02.78 bitrate=   1.6kbits/s speed=0.0296x elapsed=0:01:33.95    \nframe=  169 fps=1.8 q=33.0 size=       1KiB time=00:00:02.80 bitrate=   1.6kbits/s speed=0.0296x elapsed=0:01:34.50    \nframe=  170 fps=1.8 q=40.0 size=       1KiB time=00:00:02.81 bitrate=   1.6kbits/s speed=0.0296x elapsed=0:01:35.08    \nframe=  172 fps=1.8 q=40.0 size=       1KiB time=00:00:02.85 bitrate=   1.6kbits/s speed=0.0298x elapsed=0:01:35.61    \nframe=  174 fps=1.8 q=40.0 size=       1KiB time=00:00:02.86 bitrate=   1.6kbits/s speed=0.0298x elapsed=0:01:36.22    \nframe=  176 fps=1.8 q=40.0 size=       1KiB time=00:00:02.91 bitrate=   1.5kbits/s speed=0.0301x elapsed=0:01:36.84    \nframe=  177 fps=1.8 q=26.0 size=       1KiB time=00:00:02.93 bitrate=   1.5kbits/s speed=0.0301x elapsed=0:01:37.43    \nframe=  178 fps=1.8 q=40.0 size=       1KiB time=00:00:02.95 bitrate=   1.5kbits/s speed=0.0301x elapsed=0:01:37.99    \nframe=  179 fps=1.8 q=40.0 size=       1KiB time=00:00:02.96 bitrate=   1.5kbits/s speed=0.0301x elapsed=0:01:38.57    \nframe=  180 fps=1.8 q=40.0 size=       1KiB time=00:00:02.98 bitrate=   1.5kbits/s speed=0.0301x elapsed=0:01:39.07    \nframe=  182 fps=1.8 q=40.0 size=       1KiB time=00:00:03.01 bitrate=   1.5kbits/s speed=0.0303x elapsed=0:01:39.60    \nframe=  182 fps=1.8 q=40.0 size=       1KiB time=00:00:03.01 bitrate=   1.5kbits/s speed=0.0301x elapsed=0:01:40.14    \nframe=  184 fps=1.8 q=40.0 size=       1KiB time=00:00:03.05 bitrate=   1.5kbits/s speed=0.0303x elapsed=0:01:40.65    \nframe=  185 fps=1.8 q=33.0 size=       1KiB time=00:00:03.06 bitrate=   1.5kbits/s speed=0.0303x elapsed=0:01:41.17    \nframe=  186 fps=1.8 q=40.0 size=       1KiB time=00:00:03.08 bitrate=   1.5kbits/s speed=0.0303x elapsed=0:01:41.69    \nframe=  188 fps=1.8 q=40.0 size=       1KiB time=00:00:03.11 bitrate=   1.4kbits/s speed=0.0305x elapsed=0:01:42.22    \nframe=  188 fps=1.8 q=40.0 size=       1KiB time=00:00:03.11 bitrate=   1.4kbits/s speed=0.0303x elapsed=0:01:42.81    \nframe=  189 fps=1.8 q=39.0 size=       1KiB time=00:00:03.13 bitrate=   1.4kbits/s speed=0.0303x elapsed=0:01:43.35    \nframe=  190 fps=1.8 q=39.0 size=       1KiB time=00:00:03.15 bitrate=   1.4kbits/s speed=0.0303x elapsed=0:01:43.92    \nframe=  192 fps=1.8 q=39.0 size=       1KiB time=00:00:03.18 bitrate=   1.4kbits/s speed=0.0305x elapsed=0:01:44.52    \nframe=  195 fps=1.9 q=41.0 size=       1KiB time=00:00:03.23 bitrate=   1.4kbits/s speed=0.0307x elapsed=0:01:45.36    \nframe=  198 fps=1.9 q=41.0 size=       1KiB time=00:00:03.28 bitrate=   1.4kbits/s speed=0.0309x elapsed=0:01:46.21    \nframe=  199 fps=1.9 q=41.0 size=       1KiB time=00:00:03.30 bitrate=   1.4kbits/s speed=0.0308x elapsed=0:01:47.15    \nframe=  201 fps=1.9 q=33.0 size=       1KiB time=00:00:03.31 bitrate=   1.4kbits/s speed=0.0307x elapsed=0:01:48.14    \nframe=  203 fps=1.9 q=40.0 size=       1KiB time=00:00:03.36 bitrate=   1.3kbits/s speed=0.0309x elapsed=0:01:48.98    \nframe=  204 fps=1.9 q=41.0 size=       1KiB time=00:00:03.38 bitrate=   1.3kbits/s speed=0.0308x elapsed=0:01:49.69    \nframe=  207 fps=1.9 q=40.0 size=       1KiB time=00:00:03.41 bitrate=   1.3kbits/s speed=0.0309x elapsed=0:01:50.65    \nframe=  208 fps=1.9 q=41.0 size=       1KiB time=00:00:03.43 bitrate=   1.3kbits/s speed=0.0308x elapsed=0:01:51.63    \nframe=  208 fps=1.9 q=41.0 size=       1KiB time=00:00:03.45 bitrate=   1.3kbits/s speed=0.0307x elapsed=0:01:52.31    \nframe=  210 fps=1.9 q=41.0 size=       1KiB time=00:00:03.48 bitrate=   1.3kbits/s speed=0.0309x elapsed=0:01:52.84    \nframe=  211 fps=1.9 q=40.0 size=       1KiB time=00:00:03.50 bitrate=   1.3kbits/s speed=0.0309x elapsed=0:01:53.35    \nframe=  213 fps=1.9 q=38.0 size=       1KiB time=00:00:03.53 bitrate=   1.3kbits/s speed=0.031x elapsed=0:01:53.87    \nframe=  214 fps=1.9 q=41.0 size=       1KiB time=00:00:03.55 bitrate=   1.3kbits/s speed=0.031x elapsed=0:01:54.37    \nframe=  215 fps=1.9 q=40.0 size=       1KiB time=00:00:03.56 bitrate=   1.3kbits/s speed=0.031x elapsed=0:01:54.89    \nframe=  215 fps=1.9 q=40.0 size=       1KiB time=00:00:03.56 bitrate=   1.3kbits/s speed=0.0309x elapsed=0:01:55.42    \nframe=  216 fps=1.9 q=41.0 size=       1KiB time=00:00:03.58 bitrate=   1.3kbits/s speed=0.0309x elapsed=0:01:55.93    \nframe=  217 fps=1.9 q=33.0 size=       1KiB time=00:00:03.60 bitrate=   1.2kbits/s speed=0.0309x elapsed=0:01:56.45    \nframe=  218 fps=1.9 q=41.0 size=       1KiB time=00:00:03.61 bitrate=   1.2kbits/s speed=0.0309x elapsed=0:01:56.96    \nframe=  219 fps=1.9 q=40.0 size=       1KiB time=00:00:03.63 bitrate=   1.2kbits/s speed=0.0309x elapsed=0:01:57.47    \nframe=  220 fps=1.9 q=41.0 size=       1KiB time=00:00:03.65 bitrate=   1.2kbits/s speed=0.0309x elapsed=0:01:57.99    \nframe=  222 fps=1.9 q=41.0 size=       1KiB time=00:00:03.68 bitrate=   1.2kbits/s speed=0.0311x elapsed=0:01:58.50    \nframe=  222 fps=1.9 q=41.0 size=       1KiB time=00:00:03.68 bitrate=   1.2kbits/s speed=0.0309x elapsed=0:01:59.01    \nframe=  222 fps=1.9 q=41.0 size=       1KiB time=00:00:03.68 bitrate=   1.2kbits/s speed=0.0308x elapsed=0:01:59.54    \nframe=  223 fps=1.9 q=40.0 size=       1KiB time=00:00:03.70 bitrate=   1.2kbits/s speed=0.0308x elapsed=0:02:00.05    \nframe=  224 fps=1.9 q=41.0 size=       1KiB time=00:00:03.71 bitrate=   1.2kbits/s speed=0.0308x elapsed=0:02:00.57    \nframe=  225 fps=1.9 q=24.0 size=       1KiB time=00:00:03.73 bitrate=   1.2kbits/s speed=0.0308x elapsed=0:02:01.09    \nframe=  227 fps=1.9 q=40.0 size=       1KiB time=00:00:03.76 bitrate=   1.2kbits/s speed=0.031x elapsed=0:02:01.59    \nframe=  228 fps=1.9 q=41.0 size=       1KiB time=00:00:03.78 bitrate=   1.2kbits/s speed=0.031x elapsed=0:02:02.11    \nframe=  230 fps=1.9 q=41.0 size=       1KiB time=00:00:03.81 bitrate=   1.2kbits/s speed=0.0311x elapsed=0:02:02.62    \nframe=  230 fps=1.9 q=41.0 size=       1KiB time=00:00:03.81 bitrate=   1.2kbits/s speed=0.031x elapsed=0:02:03.14    \nframe=  231 fps=1.9 q=40.0 size=       1KiB time=00:00:03.83 bitrate=   1.2kbits/s speed=0.031x elapsed=0:02:03.66    \nframe=  231 fps=1.9 q=40.0 size=       1KiB time=00:00:03.83 bitrate=   1.2kbits/s speed=0.0309x elapsed=0:02:04.18    \nframe=  232 fps=1.9 q=41.0 size=       1KiB time=00:00:03.85 bitrate=   1.2kbits/s speed=0.0309x elapsed=0:02:04.70    \nframe=  234 fps=1.9 q=41.0 size=       1KiB time=00:00:03.88 bitrate=   1.2kbits/s speed=0.031x elapsed=0:02:05.21    \nframe=  235 fps=1.9 q=40.0 size=       1KiB time=00:00:03.90 bitrate=   1.1kbits/s speed=0.031x elapsed=0:02:05.73    \nframe=  236 fps=1.9 q=41.0 size=       1KiB time=00:00:03.91 bitrate=   1.1kbits/s speed=0.031x elapsed=0:02:06.23    \nframe=  237 fps=1.9 q=38.0 size=       1KiB time=00:00:03.93 bitrate=   1.1kbits/s speed=0.031x elapsed=0:02:06.75    \nframe=  238 fps=1.9 q=41.0 size=       1KiB time=00:00:03.95 bitrate=   1.1kbits/s speed=0.031x elapsed=0:02:07.26    \nframe=  239 fps=1.9 q=40.0 size=       1KiB time=00:00:03.96 bitrate=   1.1kbits/s speed=0.031x elapsed=0:02:07.79    \nframe=  239 fps=1.9 q=40.0 size=       1KiB time=00:00:03.96 bitrate=   1.1kbits/s speed=0.0309x elapsed=0:02:08.30    \nframe=  240 fps=1.9 q=41.0 size=       1KiB time=00:00:03.98 bitrate=   1.1kbits/s speed=0.0309x elapsed=0:02:08.82    \nframe=  242 fps=1.9 q=41.0 size=       1KiB time=00:00:04.01 bitrate=   1.1kbits/s speed=0.0311x elapsed=0:02:09.33    \nframe=  243 fps=1.9 q=40.0 size=       1KiB time=00:00:04.03 bitrate=   1.1kbits/s speed=0.0311x elapsed=0:02:09.85    \nframe=  244 fps=1.9 q=41.0 size=       1KiB time=00:00:04.05 bitrate=   1.1kbits/s speed=0.0311x elapsed=0:02:10.36    \nframe=  245 fps=1.9 q=38.0 size=       1KiB time=00:00:04.06 bitrate=   1.1kbits/s speed=0.0311x elapsed=0:02:10.87    \nframe=  246 fps=1.9 q=41.0 size=       1KiB time=00:00:04.08 bitrate=   1.1kbits/s speed=0.0311x elapsed=0:02:11.40    \nframe=  247 fps=1.9 q=40.0 size=       1KiB time=00:00:04.10 bitrate=   1.1kbits/s speed=0.0311x elapsed=0:02:11.91    \nframe=  247 fps=1.9 q=40.0 size=       1KiB time=00:00:04.10 bitrate=   1.1kbits/s speed=0.031x elapsed=0:02:12.43    \nframe=  249 fps=1.9 q=34.0 size=       1KiB time=00:00:04.13 bitrate=   1.1kbits/s speed=0.0311x elapsed=0:02:12.95    \nframe=  250 fps=1.9 q=41.0 size=       1KiB time=00:00:04.15 bitrate=   1.1kbits/s speed=0.0311x elapsed=0:02:13.45    \nframe=  250 fps=1.9 q=41.0 size=       1KiB time=00:00:04.15 bitrate=   1.1kbits/s speed=0.031x elapsed=0:02:13.97    \nframe=  252 fps=1.9 q=41.0 size=       1KiB time=00:00:04.18 bitrate=   1.1kbits/s speed=0.0311x elapsed=0:02:14.48    \nframe=  253 fps=1.9 q=38.0 size=       1KiB time=00:00:04.20 bitrate=   1.1kbits/s speed=0.0311x elapsed=0:02:15.00    \nframe=  254 fps=1.9 q=41.0 size=       1KiB time=00:00:04.21 bitrate=   1.1kbits/s speed=0.0311x elapsed=0:02:15.52    \nframe=  254 fps=1.9 q=41.0 size=       1KiB time=00:00:04.21 bitrate=   1.1kbits/s speed=0.031x elapsed=0:02:16.03    \nframe=  255 fps=1.9 q=40.0 size=       1KiB time=00:00:04.23 bitrate=   1.1kbits/s speed=0.031x elapsed=0:02:16.58    \nframe=  256 fps=1.9 q=34.0 size=       1KiB time=00:00:04.25 bitrate=   1.1kbits/s speed=0.031x elapsed=0:02:17.12    \nframe=  258 fps=1.9 q=41.0 size=       1KiB time=00:00:04.28 bitrate=   1.0kbits/s speed=0.0311x elapsed=0:02:17.68    \nframe=  259 fps=1.9 q=40.0 size=       1KiB time=00:00:04.30 bitrate=   1.0kbits/s speed=0.0311x elapsed=0:02:18.25    \nframe=  261 fps=1.9 q=38.0 size=       1KiB time=00:00:04.33 bitrate=   1.0kbits/s speed=0.0312x elapsed=0:02:18.81    \nframe=  261 fps=1.9 q=38.0 size=       1KiB time=00:00:04.33 bitrate=   1.0kbits/s speed=0.0311x elapsed=0:02:19.33    \nframe=  262 fps=1.9 q=41.0 size=       1KiB time=00:00:04.35 bitrate=   1.0kbits/s speed=0.0311x elapsed=0:02:19.86    \nframe=  263 fps=1.9 q=40.0 size=       1KiB time=00:00:04.36 bitrate=   1.0kbits/s speed=0.0311x elapsed=0:02:20.36    \nframe=  263 fps=1.9 q=40.0 size=       1KiB time=00:00:04.36 bitrate=   1.0kbits/s speed=0.031x elapsed=0:02:20.88    \nframe=  264 fps=1.9 q=41.0 size=       1KiB time=00:00:04.38 bitrate=   1.0kbits/s speed=0.031x elapsed=0:02:21.40    \nframe=  265 fps=1.9 q=33.0 size=       1KiB time=00:00:04.40 bitrate=   1.0kbits/s speed=0.031x elapsed=0:02:21.92    \nframe=  266 fps=1.9 q=42.0 size=       1KiB time=00:00:04.41 bitrate=   1.0kbits/s speed=0.031x elapsed=0:02:22.43    \nframe=  268 fps=1.9 q=42.0 size=       1KiB time=00:00:04.45 bitrate=   1.0kbits/s speed=0.0311x elapsed=0:02:22.95    \nframe=  269 fps=1.9 q=40.0 size=       1KiB time=00:00:04.46 bitrate=   1.0kbits/s speed=0.0311x elapsed=0:02:23.46    \nframe=  270 fps=1.9 q=42.0 size=       1KiB time=00:00:04.48 bitrate=   1.0kbits/s speed=0.0311x elapsed=0:02:23.98    \nframe=  270 fps=1.9 q=42.0 size=       1KiB time=00:00:04.48 bitrate=   1.0kbits/s speed=0.031x elapsed=0:02:24.49    \nframe=  271 fps=1.9 q=41.0 size=       1KiB time=00:00:04.50 bitrate=   1.0kbits/s speed=0.031x elapsed=0:02:25.01    \nframe=  272 fps=1.9 q=42.0 size=       1KiB time=00:00:04.51 bitrate=   1.0kbits/s speed=0.031x elapsed=0:02:25.52    \nframe=  273 fps=1.9 q=25.0 size=       1KiB time=00:00:04.53 bitrate=   1.0kbits/s speed=0.031x elapsed=0:02:26.04    \nframe=  274 fps=1.9 q=42.0 size=       1KiB time=00:00:04.55 bitrate=   1.0kbits/s speed=0.031x elapsed=0:02:26.57    \nframe=  275 fps=1.9 q=41.0 size=       1KiB time=00:00:04.56 bitrate=   1.0kbits/s speed=0.031x elapsed=0:02:27.08    \nframe=  276 fps=1.9 q=42.0 size=       1KiB time=00:00:04.58 bitrate=   1.0kbits/s speed=0.0311x elapsed=0:02:27.60    \nframe=  277 fps=1.9 q=40.0 size=       1KiB time=00:00:04.60 bitrate=   1.0kbits/s speed=0.0311x elapsed=0:02:28.12    \nframe=  278 fps=1.9 q=42.0 size=       1KiB time=00:00:04.61 bitrate=   1.0kbits/s speed=0.0311x elapsed=0:02:28.64    \nframe=  279 fps=1.9 q=41.0 size=       1KiB time=00:00:04.63 bitrate=   1.0kbits/s speed=0.0311x elapsed=0:02:29.14    \nframe=  280 fps=1.9 q=42.0 size=       1KiB time=00:00:04.65 bitrate=   1.0kbits/s speed=0.0311x elapsed=0:02:29.65    \nframe=  282 fps=1.9 q=42.0 size=       1KiB time=00:00:04.68 bitrate=   1.0kbits/s speed=0.0312x elapsed=0:02:30.17    \nframe=  282 fps=1.9 q=42.0 size=       1KiB time=00:00:04.68 bitrate=   1.0kbits/s speed=0.0311x elapsed=0:02:30.69    \nframe=  283 fps=1.9 q=41.0 size=       1KiB time=00:00:04.70 bitrate=   1.0kbits/s speed=0.0311x elapsed=0:02:31.21    \nframe=  285 fps=1.9 q=40.0 size=       1KiB time=00:00:04.73 bitrate=   0.9kbits/s speed=0.0312x elapsed=0:02:31.72    \nframe=  285 fps=1.9 q=40.0 size=       1KiB time=00:00:04.73 bitrate=   0.9kbits/s speed=0.0311x elapsed=0:02:32.24    \nframe=  285 fps=1.9 q=40.0 size=       1KiB time=00:00:04.73 bitrate=   0.9kbits/s speed=0.031x elapsed=0:02:32.75    \nframe=  285 fps=1.9 q=40.0 size=       1KiB time=00:00:04.73 bitrate=   0.9kbits/s speed=0.0309x elapsed=0:02:33.26    \nframe=  285 fps=1.9 q=40.0 size=       1KiB time=00:00:04.73 bitrate=   0.9kbits/s speed=0.0308x elapsed=0:02:33.79    \nframe=  286 fps=1.9 q=42.0 size=       1KiB time=00:00:04.75 bitrate=   0.9kbits/s speed=0.0308x elapsed=0:02:34.31    \nframe=  286 fps=1.8 q=42.0 size=       1KiB time=00:00:04.75 bitrate=   0.9kbits/s speed=0.0307x elapsed=0:02:34.82    \nframe=  287 fps=1.8 q=41.0 size=       1KiB time=00:00:04.76 bitrate=   0.9kbits/s speed=0.0307x elapsed=0:02:35.33    \nframe=  287 fps=1.8 q=41.0 size=       1KiB time=00:00:04.76 bitrate=   0.9kbits/s speed=0.0306x elapsed=0:02:35.85    \nframe=  288 fps=1.8 q=43.0 size=       1KiB time=00:00:04.78 bitrate=   0.9kbits/s speed=0.0306x elapsed=0:02:36.36    \nframe=  289 fps=1.8 q=25.0 size=       1KiB time=00:00:04.80 bitrate=   0.9kbits/s speed=0.0306x elapsed=0:02:36.89    \nframe=  291 fps=1.8 q=42.0 size=       1KiB time=00:00:04.83 bitrate=   0.9kbits/s speed=0.0307x elapsed=0:02:37.39    \nframe=  294 fps=1.9 q=44.0 size=       1KiB time=00:00:04.88 bitrate=   0.9kbits/s speed=0.0309x elapsed=0:02:37.91    \nframe=  295 fps=1.9 q=43.0 size=       1KiB time=00:00:04.90 bitrate=   0.9kbits/s speed=0.0309x elapsed=0:02:38.42    \nframe=  297 fps=1.9 q=35.0 size=       1KiB time=00:00:04.93 bitrate=   0.9kbits/s speed=0.031x elapsed=0:02:38.94    \nframe=  298 fps=1.9 q=44.0 size=       1KiB time=00:00:04.95 bitrate=   0.9kbits/s speed=0.031x elapsed=0:02:39.46    \nframe=  300 fps=1.9 q=40.0 size=       1KiB time=00:00:04.98 bitrate=   0.9kbits/s speed=0.0312x elapsed=0:02:39.97    \nframe=  301 fps=1.9 q=40.0 size=       1KiB time=00:00:05.00 bitrate=   0.9kbits/s speed=0.0312x elapsed=0:02:40.49    \nframe=  303 fps=1.9 q=40.0 size=    1280KiB time=00:00:05.03 bitrate=2083.3kbits/s speed=0.0313x elapsed=0:02:41.01    \nframe=  305 fps=1.9 q=25.0 size=    1280KiB time=00:00:05.06 bitrate=2069.6kbits/s speed=0.0314x elapsed=0:02:41.53    \nframe=  306 fps=1.9 q=46.0 size=    1280KiB time=00:00:05.08 bitrate=2062.8kbits/s speed=0.0314x elapsed=0:02:42.03    \nframe=  306 fps=1.9 q=46.0 size=    1280KiB time=00:00:05.08 bitrate=2062.8kbits/s speed=0.0313x elapsed=0:02:42.56    \nframe=  308 fps=1.9 q=45.0 size=    1280KiB time=00:00:05.11 bitrate=2049.3kbits/s speed=0.0314x elapsed=0:02:43.08    \nframe=  309 fps=1.9 q=43.0 size=    1280KiB time=00:00:05.13 bitrate=2042.7kbits/s speed=0.0314x elapsed=0:02:43.59    \nframe=  309 fps=1.9 q=43.0 size=    1280KiB time=00:00:05.13 bitrate=2042.7kbits/s speed=0.0313x elapsed=0:02:44.11    \nframe=  310 fps=1.9 q=45.0 size=    1280KiB time=00:00:05.15 bitrate=2036.1kbits/s speed=0.0313x elapsed=0:02:44.62    \nframe=  311 fps=1.9 q=44.0 size=    1280KiB time=00:00:05.16 bitrate=2029.5kbits/s speed=0.0313x elapsed=0:02:45.15    \nframe=  312 fps=1.9 q=45.0 size=    1280KiB time=00:00:05.18 bitrate=2023.0kbits/s speed=0.0313x elapsed=0:02:45.66    \nframe=  314 fps=1.9 q=45.0 size=    1280KiB time=00:00:05.21 bitrate=2010.0kbits/s speed=0.0314x elapsed=0:02:46.18    \nframe=  315 fps=1.9 q=44.0 size=    1280KiB time=00:00:05.23 bitrate=2003.6kbits/s speed=0.0314x elapsed=0:02:46.69    \nframe=  316 fps=1.9 q=45.0 size=    1280KiB time=00:00:05.25 bitrate=1997.3kbits/s speed=0.0314x elapsed=0:02:47.20    \nframe=  317 fps=1.9 q=43.0 size=    1280KiB time=00:00:05.26 bitrate=1991.0kbits/s speed=0.0314x elapsed=0:02:47.72    \nframe=  317 fps=1.9 q=43.0 size=    1280KiB time=00:00:05.26 bitrate=1991.0kbits/s speed=0.0313x elapsed=0:02:48.23    \nframe=  317 fps=1.9 q=43.0 size=    1280KiB time=00:00:05.26 bitrate=1991.0kbits/s speed=0.0312x elapsed=0:02:48.76    \nframe=  317 fps=1.9 q=43.0 size=    1280KiB time=00:00:05.26 bitrate=1991.0kbits/s speed=0.0311x elapsed=0:02:49.26    \nframe=  318 fps=1.9 q=45.0 size=    1280KiB time=00:00:05.28 bitrate=1984.7kbits/s speed=0.0311x elapsed=0:02:49.79    \nframe=  319 fps=1.9 q=44.0 size=    1280KiB time=00:00:05.30 bitrate=1978.4kbits/s speed=0.0311x elapsed=0:02:50.30    \nframe=  320 fps=1.9 q=45.0 size=    1280KiB time=00:00:05.31 bitrate=1972.2kbits/s speed=0.0311x elapsed=0:02:50.82    \nframe=  322 fps=1.9 q=19.0 size=    1280KiB time=00:00:05.35 bitrate=1960.0kbits/s speed=0.0312x elapsed=0:02:51.33    \nframe=  323 fps=1.9 q=47.0 size=    1536KiB time=00:00:05.36 bitrate=2344.6kbits/s speed=0.0312x elapsed=0:02:51.85    \nframe=  326 fps=1.9 q=44.0 size=    1536KiB time=00:00:05.41 bitrate=2323.0kbits/s speed=0.0314x elapsed=0:02:52.39    \nframe=  327 fps=1.9 q=47.0 size=    1536KiB time=00:00:05.41 bitrate=2323.0kbits/s speed=0.0313x elapsed=0:02:53.02    \nframe=  328 fps=1.9 q=46.0 size=    1536KiB time=00:00:05.45 bitrate=2308.8kbits/s speed=0.0314x elapsed=0:02:53.63    \nframe=  330 fps=1.9 q=37.0 size=    1536KiB time=00:00:05.46 bitrate=2301.8kbits/s speed=0.0314x elapsed=0:02:54.21    \nframe=  331 fps=1.9 q=47.0 size=    1536KiB time=00:00:05.50 bitrate=2287.8kbits/s speed=0.0315x elapsed=0:02:54.81    \nframe=  333 fps=1.9 q=47.0 size=    1536KiB time=00:00:05.53 bitrate=2274.0kbits/s speed=0.0316x elapsed=0:02:55.37    \nframe=  334 fps=1.9 q=43.0 size=    1536KiB time=00:00:05.55 bitrate=2267.2kbits/s speed=0.0316x elapsed=0:02:55.90    \nframe=  334 fps=1.9 q=43.0 size=    1536KiB time=00:00:05.55 bitrate=2267.2kbits/s speed=0.0314x elapsed=0:02:56.57    \nframe=  335 fps=1.9 q=47.0 size=    1536KiB time=00:00:05.56 bitrate=2260.4kbits/s speed=0.0314x elapsed=0:02:57.08    \nframe=  335 fps=1.9 q=47.0 size=    1536KiB time=00:00:05.56 bitrate=2260.4kbits/s speed=0.0313x elapsed=0:02:57.60    \nframe=  337 fps=1.9 q=47.0 size=    1536KiB time=00:00:05.60 bitrate=2246.9kbits/s speed=0.0314x elapsed=0:02:58.11    \nframe=  339 fps=1.9 q=47.0 size=    1536KiB time=00:00:05.63 bitrate=2233.7kbits/s speed=0.0315x elapsed=0:02:58.63    \nframe=  339 fps=1.9 q=47.0 size=    1536KiB time=00:00:05.63 bitrate=2233.7kbits/s speed=0.0314x elapsed=0:02:59.14    \nframe=  341 fps=1.9 q=47.0 size=    1536KiB time=00:00:05.66 bitrate=2220.5kbits/s speed=0.0315x elapsed=0:02:59.67    \nframe=  343 fps=1.9 q=47.0 size=    1536KiB time=00:00:05.70 bitrate=2207.5kbits/s speed=0.0316x elapsed=0:03:00.17    \nframe=  344 fps=1.9 q=46.0 size=    1536KiB time=00:00:05.71 bitrate=2201.1kbits/s speed=0.0316x elapsed=0:03:00.69    \nframe=  346 fps=1.9 q=39.0 size=    1536KiB time=00:00:05.75 bitrate=2188.3kbits/s speed=0.0317x elapsed=0:03:01.20    \nframe=  347 fps=1.9 q=47.0 size=    1536KiB time=00:00:05.76 bitrate=2182.0kbits/s speed=0.0317x elapsed=0:03:01.72    \nframe=  349 fps=1.9 q=47.0 size=    1536KiB time=00:00:05.80 bitrate=2169.5kbits/s speed=0.0318x elapsed=0:03:02.24    \nframe=  349 fps=1.9 q=47.0 size=    1536KiB time=00:00:05.80 bitrate=2169.5kbits/s speed=0.0317x elapsed=0:03:02.76    \nframe=  350 fps=1.9 q=44.0 size=    1536KiB time=00:00:05.81 bitrate=2163.3kbits/s speed=0.0317x elapsed=0:03:03.27    \nframe=  351 fps=1.9 q=47.0 size=    1536KiB time=00:00:05.83 bitrate=2157.1kbits/s speed=0.0317x elapsed=0:03:03.78    \nframe=  351 fps=1.9 q=47.0 size=    1536KiB time=00:00:05.83 bitrate=2157.1kbits/s speed=0.0317x elapsed=0:03:04.30    \nframe=  352 fps=1.9 q=46.0 size=    1536KiB time=00:00:05.85 bitrate=2150.9kbits/s speed=0.0317x elapsed=0:03:04.81    \nframe=  354 fps=1.9 q=29.0 size=    1536KiB time=00:00:05.88 bitrate=2138.7kbits/s speed=0.0317x elapsed=0:03:05.32    \nframe=  355 fps=1.9 q=47.0 size=    1536KiB time=00:00:05.90 bitrate=2132.7kbits/s speed=0.0317x elapsed=0:03:05.85    \nframe=  356 fps=1.9 q=46.0 size=    1536KiB time=00:00:05.91 bitrate=2126.7kbits/s speed=0.0317x elapsed=0:03:06.37    \nframe=  358 fps=1.9 q=44.0 size=    1536KiB time=00:00:05.95 bitrate=2114.8kbits/s speed=0.0318x elapsed=0:03:06.88    \nframe=  359 fps=1.9 q=47.0 size=    1536KiB time=00:00:05.96 bitrate=2108.9kbits/s speed=0.0318x elapsed=0:03:07.39    \nframe=  362 fps=1.9 q=39.0 size=    1536KiB time=00:00:06.01 bitrate=2091.3kbits/s speed=0.032x elapsed=0:03:07.92    \nframe=  362 fps=1.9 q=39.0 size=    1536KiB time=00:00:06.01 bitrate=2091.3kbits/s speed=0.0319x elapsed=0:03:08.43    \nframe=  364 fps=1.9 q=46.0 size=    1536KiB time=00:00:06.05 bitrate=2079.8kbits/s speed=0.032x elapsed=0:03:08.94    \nframe=  365 fps=1.9 q=40.0 size=    1536KiB time=00:00:06.06 bitrate=2074.1kbits/s speed=0.032x elapsed=0:03:09.45    \nframe=  367 fps=1.9 q=44.0 size=    1536KiB time=00:00:06.10 bitrate=2062.8kbits/s speed=0.0321x elapsed=0:03:09.97    \nframe=  370 fps=1.9 q=30.0 size=    1536KiB time=00:00:06.13 bitrate=2051.6kbits/s speed=0.0322x elapsed=0:03:10.48    \nframe=  372 fps=1.9 q=46.0 size=    1536KiB time=00:00:06.18 bitrate=2035.0kbits/s speed=0.0323x elapsed=0:03:11.40    \nframe=  374 fps=1.9 q=44.0 size=    1536KiB time=00:00:06.21 bitrate=2024.1kbits/s speed=0.0324x elapsed=0:03:11.91    \nframe=  375 fps=1.9 q=47.0 size=    1536KiB time=00:00:06.23 bitrate=2018.6kbits/s speed=0.0324x elapsed=0:03:12.42    \nframe=  376 fps=1.9 q=46.0 size=    1536KiB time=00:00:06.25 bitrate=2013.3kbits/s speed=0.0324x elapsed=0:03:12.94    \nframe=  378 fps=2.0 q=40.0 size=    1536KiB time=00:00:06.28 bitrate=2002.6kbits/s speed=0.0325x elapsed=0:03:13.46    \nframe=  379 fps=2.0 q=47.0 size=    1536KiB time=00:00:06.30 bitrate=1997.3kbits/s speed=0.0325x elapsed=0:03:13.98    \nframe=  381 fps=2.0 q=47.0 size=    1536KiB time=00:00:06.33 bitrate=1986.8kbits/s speed=0.0326x elapsed=0:03:14.49    \nframe=  382 fps=2.0 q=44.0 size=    1536KiB time=00:00:06.35 bitrate=1981.6kbits/s speed=0.0326x elapsed=0:03:15.01    \nframe=  383 fps=2.0 q=47.0 size=    1536KiB time=00:00:06.36 bitrate=1976.4kbits/s speed=0.0326x elapsed=0:03:15.53    \nframe=  384 fps=2.0 q=46.0 size=    1536KiB time=00:00:06.38 bitrate=1971.2kbits/s speed=0.0326x elapsed=0:03:16.04    \nframe=  385 fps=2.0 q=47.0 size=    1536KiB time=00:00:06.40 bitrate=1966.1kbits/s speed=0.0326x elapsed=0:03:16.56    \nframe=  386 fps=2.0 q=32.0 size=    1536KiB time=00:00:06.41 bitrate=1961.0kbits/s speed=0.0326x elapsed=0:03:17.09    \nframe=  387 fps=2.0 q=47.0 size=    1536KiB time=00:00:06.43 bitrate=1955.9kbits/s speed=0.0326x elapsed=0:03:17.59    \nframe=  389 fps=2.0 q=47.0 size=    1536KiB time=00:00:06.46 bitrate=1945.8kbits/s speed=0.0326x elapsed=0:03:18.12    \nframe=  390 fps=2.0 q=44.0 size=    1536KiB time=00:00:06.48 bitrate=1940.8kbits/s speed=0.0326x elapsed=0:03:18.63    \nframe=  392 fps=2.0 q=46.0 size=    1536KiB time=00:00:06.51 bitrate=1930.9kbits/s speed=0.0327x elapsed=0:03:19.14    \nframe=  394 fps=2.0 q=40.0 size=    1536KiB time=00:00:06.55 bitrate=1921.1kbits/s speed=0.0328x elapsed=0:03:19.66    \nframe=  395 fps=2.0 q=47.0 size=    1536KiB time=00:00:06.56 bitrate=1916.2kbits/s speed=0.0328x elapsed=0:03:20.17    \nframe=  398 fps=2.0 q=44.0 size=    1536KiB time=00:00:06.61 bitrate=1901.7kbits/s speed=0.033x elapsed=0:03:20.68    \nframe=  398 fps=2.0 q=44.0 size=    1536KiB time=00:00:06.61 bitrate=1901.7kbits/s speed=0.0329x elapsed=0:03:21.20    \nframe=  399 fps=2.0 q=47.0 size=    1536KiB time=00:00:06.63 bitrate=1896.9kbits/s speed=0.0329x elapsed=0:03:21.72    \nframe=  399 fps=2.0 q=47.0 size=    1536KiB time=00:00:06.63 bitrate=1896.9kbits/s speed=0.0328x elapsed=0:03:22.24    \nframe=  401 fps=2.0 q=47.0 size=    1536KiB time=00:00:06.66 bitrate=1887.4kbits/s speed=0.0329x elapsed=0:03:22.76    \nframe=  401 fps=2.0 q=47.0 size=    1536KiB time=00:00:06.66 bitrate=1887.4kbits/s speed=0.0328x elapsed=0:03:23.28    \nframe=  402 fps=2.0 q=31.0 size=    1536KiB time=00:00:06.68 bitrate=1882.7kbits/s speed=0.0328x elapsed=0:03:23.79    \nframe=  403 fps=2.0 q=47.0 size=    1536KiB time=00:00:06.70 bitrate=1878.0kbits/s speed=0.0328x elapsed=0:03:24.32    \nframe=  405 fps=2.0 q=47.0 size=    1536KiB time=00:00:06.73 bitrate=1868.7kbits/s speed=0.0329x elapsed=0:03:24.83    \nframe=  406 fps=2.0 q=44.0 size=    1536KiB time=00:00:06.75 bitrate=1864.1kbits/s speed=0.0329x elapsed=0:03:25.35    \nframe=  407 fps=2.0 q=47.0 size=    1536KiB time=00:00:06.76 bitrate=1859.5kbits/s speed=0.0329x elapsed=0:03:25.86    \nframe=  409 fps=2.0 q=47.0 size=    1536KiB time=00:00:06.78 bitrate=1855.0kbits/s speed=0.0329x elapsed=0:03:26.40    \nframe=  410 fps=2.0 q=40.0 size=    1536KiB time=00:00:06.81 bitrate=1845.9kbits/s speed=0.0329x elapsed=0:03:26.94    \nframe=  412 fps=2.0 q=46.0 size=    1536KiB time=00:00:06.85 bitrate=1836.9kbits/s speed=0.033x elapsed=0:03:27.49    \nframe=  414 fps=2.0 q=44.0 size=    1536KiB time=00:00:06.86 bitrate=1832.5kbits/s speed=0.033x elapsed=0:03:28.02    \nframe=  415 fps=2.0 q=47.0 size=    1536KiB time=00:00:06.90 bitrate=1823.6kbits/s speed=0.0331x elapsed=0:03:28.59    \nframe=  417 fps=2.0 q=40.0 size=    1536KiB time=00:00:06.93 bitrate=1814.8kbits/s speed=0.0332x elapsed=0:03:29.12    \nframe=  419 fps=2.0 q=47.0 size=    1536KiB time=00:00:06.96 bitrate=1806.2kbits/s speed=0.0332x elapsed=0:03:29.64    \nframe=  420 fps=2.0 q=46.0 size=    1536KiB time=00:00:06.98 bitrate=1801.8kbits/s speed=0.0332x elapsed=0:03:30.26    \nframe=  422 fps=2.0 q=44.0 size=    1536KiB time=00:00:07.01 bitrate=1793.3kbits/s speed=0.0333x elapsed=0:03:30.78    \nframe=  423 fps=2.0 q=47.0 size=    1536KiB time=00:00:07.03 bitrate=1789.0kbits/s speed=0.0333x elapsed=0:03:31.38    \nframe=  424 fps=2.0 q=46.0 size=    1536KiB time=00:00:07.05 bitrate=1784.8kbits/s speed=0.0332x elapsed=0:03:32.04    \nframe=  425 fps=2.0 q=47.0 size=    1536KiB time=00:00:07.06 bitrate=1780.6kbits/s speed=0.0332x elapsed=0:03:32.55    \nframe=  427 fps=2.0 q=47.0 size=    1536KiB time=00:00:07.10 bitrate=1772.2kbits/s speed=0.0333x elapsed=0:03:33.07    \nframe=  428 fps=2.0 q=46.0 size=    1536KiB time=00:00:07.11 bitrate=1768.1kbits/s speed=0.0333x elapsed=0:03:33.58    \nframe=  430 fps=2.0 q=44.0 size=    1536KiB time=00:00:07.15 bitrate=1759.8kbits/s speed=0.0334x elapsed=0:03:34.10    \nframe=  431 fps=2.0 q=47.0 size=    1536KiB time=00:00:07.16 bitrate=1755.8kbits/s speed=0.0334x elapsed=0:03:34.62    \nframe=  433 fps=2.0 q=43.0 size=    1536KiB time=00:00:07.20 bitrate=1747.6kbits/s speed=0.0335x elapsed=0:03:35.13    \nframe=  435 fps=2.0 q=46.0 size=    1536KiB time=00:00:07.23 bitrate=1739.6kbits/s speed=0.0335x elapsed=0:03:35.64    \nframe=  437 fps=2.0 q=46.0 size=    1536KiB time=00:00:07.26 bitrate=1731.6kbits/s speed=0.0336x elapsed=0:03:36.16    \nframe=  438 fps=2.0 q=43.0 size=    1536KiB time=00:00:07.28 bitrate=1727.6kbits/s speed=0.0336x elapsed=0:03:36.68    \nframe=  439 fps=2.0 q=46.0 size=    1536KiB time=00:00:07.30 bitrate=1723.7kbits/s speed=0.0336x elapsed=0:03:37.19    \nframe=  442 fps=2.0 q=39.0 size=    1536KiB time=00:00:07.35 bitrate=1712.0kbits/s speed=0.0338x elapsed=0:03:37.71    \nframe=  443 fps=2.0 q=46.0 size=    1536KiB time=00:00:07.36 bitrate=1708.1kbits/s speed=0.0338x elapsed=0:03:38.22    \nframe=  445 fps=2.0 q=46.0 size=    1536KiB time=00:00:07.40 bitrate=1700.4kbits/s speed=0.0338x elapsed=0:03:38.74    \nframe=  446 fps=2.0 q=43.0 size=    1536KiB time=00:00:07.41 bitrate=1696.6kbits/s speed=0.0338x elapsed=0:03:39.26    \nframe=  446 fps=2.0 q=43.0 size=    1536KiB time=00:00:07.41 bitrate=1696.6kbits/s speed=0.0337x elapsed=0:03:39.77    \nframe=  447 fps=2.0 q=46.0 size=    1536KiB time=00:00:07.43 bitrate=1692.8kbits/s speed=0.0337x elapsed=0:03:40.29    \nframe=  447 fps=2.0 q=46.0 size=    1536KiB time=00:00:07.43 bitrate=1692.8kbits/s speed=0.0337x elapsed=0:03:40.81    \nframe=  448 fps=2.0 q=45.0 size=    1536KiB time=00:00:07.45 bitrate=1689.0kbits/s speed=0.0337x elapsed=0:03:41.32    \nframe=  451 fps=2.0 q=46.0 size=    1536KiB time=00:00:07.50 bitrate=1677.7kbits/s speed=0.0338x elapsed=0:03:41.84    \nframe=  453 fps=2.0 q=46.0 size=    1536KiB time=00:00:07.53 bitrate=1670.3kbits/s speed=0.0339x elapsed=0:03:42.35    \nframe=  454 fps=2.0 q=43.0 size=    1536KiB time=00:00:07.55 bitrate=1666.6kbits/s speed=0.0339x elapsed=0:03:42.86    \nframe=  455 fps=2.0 q=46.0 size=    1536KiB time=00:00:07.56 bitrate=1662.9kbits/s speed=0.0339x elapsed=0:03:43.38    \nframe=  455 fps=2.0 q=46.0 size=    1536KiB time=00:00:07.56 bitrate=1662.9kbits/s speed=0.0338x elapsed=0:03:43.89    \nframe=  457 fps=2.0 q=46.0 size=    1536KiB time=00:00:07.60 bitrate=1655.6kbits/s speed=0.0339x elapsed=0:03:44.41    \nframe=  458 fps=2.0 q=38.0 size=    1536KiB time=00:00:07.61 bitrate=1652.0kbits/s speed=0.0339x elapsed=0:03:44.93    \nframe=  460 fps=2.0 q=45.0 size=    1536KiB time=00:00:07.65 bitrate=1644.8kbits/s speed=0.0339x elapsed=0:03:45.45    \nframe=  461 fps=2.0 q=46.0 size=    1536KiB time=00:00:07.66 bitrate=1641.2kbits/s speed=0.0339x elapsed=0:03:45.95    \nframe=  461 fps=2.0 q=46.0 size=    1536KiB time=00:00:07.66 bitrate=1641.2kbits/s speed=0.0339x elapsed=0:03:46.47    \nframe=  461 fps=2.0 q=46.0 size=    1536KiB time=00:00:07.66 bitrate=1641.2kbits/s speed=0.0338x elapsed=0:03:46.99    \nframe=  462 fps=2.0 q=43.0 size=    1536KiB time=00:00:07.68 bitrate=1637.7kbits/s speed=0.0338x elapsed=0:03:47.50    \nframe=  462 fps=2.0 q=43.0 size=    1536KiB time=00:00:07.68 bitrate=1637.7kbits/s speed=0.0337x elapsed=0:03:48.01    \nframe=  463 fps=2.0 q=46.0 size=    1536KiB time=00:00:07.70 bitrate=1634.1kbits/s speed=0.0337x elapsed=0:03:48.54    \nframe=  464 fps=2.0 q=45.0 size=    1536KiB time=00:00:07.71 bitrate=1630.6kbits/s speed=0.0337x elapsed=0:03:49.05    \nframe=  466 fps=2.0 q=29.0 size=    1536KiB time=00:00:07.75 bitrate=1623.6kbits/s speed=0.0338x elapsed=0:03:49.56    \nframe=  467 fps=2.0 q=46.0 size=    1536KiB time=00:00:07.76 bitrate=1620.1kbits/s speed=0.0338x elapsed=0:03:50.08    \nframe=  469 fps=2.0 q=46.0 size=    1536KiB time=00:00:07.80 bitrate=1613.2kbits/s speed=0.0338x elapsed=0:03:50.60    \nframe=  470 fps=2.0 q=43.0 size=    1536KiB time=00:00:07.81 bitrate=1609.8kbits/s speed=0.0338x elapsed=0:03:51.11    \nframe=  472 fps=2.0 q=45.0 size=    1536KiB time=00:00:07.85 bitrate=1602.9kbits/s speed=0.0339x elapsed=0:03:51.64    \nframe=  474 fps=2.0 q=38.0 size=    1536KiB time=00:00:07.88 bitrate=1596.1kbits/s speed=0.034x elapsed=0:03:52.15    \nframe=  475 fps=2.0 q=46.0 size=    1536KiB time=00:00:07.90 bitrate=1592.8kbits/s speed=0.034x elapsed=0:03:52.65    \nframe=  476 fps=2.0 q=45.0 size=    1536KiB time=00:00:07.91 bitrate=1589.4kbits/s speed=0.034x elapsed=0:03:53.17    \nframe=  478 fps=2.0 q=43.0 size=    1536KiB time=00:00:07.95 bitrate=1582.8kbits/s speed=0.034x elapsed=0:03:53.70    \nframe=  479 fps=2.0 q=46.0 size=    1536KiB time=00:00:07.96 bitrate=1579.4kbits/s speed=0.034x elapsed=0:03:54.21    \nframe=  479 fps=2.0 q=46.0 size=    1536KiB time=00:00:07.96 bitrate=1579.4kbits/s speed=0.0339x elapsed=0:03:54.72    \nframe=  480 fps=2.0 q=45.0 size=    1536KiB time=00:00:07.98 bitrate=1576.1kbits/s speed=0.0339x elapsed=0:03:55.24    \nframe=  483 fps=2.0 q=46.0 size=    1536KiB time=00:00:08.03 bitrate=1566.3kbits/s speed=0.0341x elapsed=0:03:55.76    \nframe=  485 fps=2.1 q=46.0 size=    1536KiB time=00:00:08.06 bitrate=1559.9kbits/s speed=0.0341x elapsed=0:03:56.27    \nframe=  486 fps=2.1 q=43.0 size=    1536KiB time=00:00:08.08 bitrate=1556.6kbits/s speed=0.0341x elapsed=0:03:56.79    \nframe=  488 fps=2.1 q=45.0 size=    1536KiB time=00:00:08.11 bitrate=1550.3kbits/s speed=0.0342x elapsed=0:03:57.30    \nframe=  490 fps=2.1 q=38.0 size=    1536KiB time=00:00:08.15 bitrate=1543.9kbits/s speed=0.0343x elapsed=0:03:57.82    \nframe=  492 fps=2.1 q=45.0 size=    1536KiB time=00:00:08.18 bitrate=1537.6kbits/s speed=0.0343x elapsed=0:03:58.33    \nframe=  493 fps=2.1 q=46.0 size=    1536KiB time=00:00:08.20 bitrate=1534.5kbits/s speed=0.0343x elapsed=0:03:58.85    \nframe=  494 fps=2.1 q=43.0 size=    1536KiB time=00:00:08.21 bitrate=1531.4kbits/s speed=0.0343x elapsed=0:03:59.37    \nframe=  494 fps=2.1 q=43.0 size=    1536KiB time=00:00:08.21 bitrate=1531.4kbits/s speed=0.0343x elapsed=0:03:59.88    \nframe=  495 fps=2.1 q=46.0 size=    1536KiB time=00:00:08.23 bitrate=1528.3kbits/s speed=0.0342x elapsed=0:04:00.39    \nframe=  496 fps=2.1 q=45.0 size=    1536KiB time=00:00:08.25 bitrate=1525.2kbits/s speed=0.0342x elapsed=0:04:00.91    \nframe=  497 fps=2.1 q=46.0 size=    1536KiB time=00:00:08.26 bitrate=1522.1kbits/s speed=0.0342x elapsed=0:04:01.43    \nframe=  499 fps=2.1 q=46.0 size=    1536KiB time=00:00:08.28 bitrate=1519.1kbits/s speed=0.0342x elapsed=0:04:01.94    \nframe=  501 fps=2.1 q=46.0 size=    1536KiB time=00:00:08.30 bitrate=1516.0kbits/s speed=0.0342x elapsed=0:04:02.67    \nframe=  502 fps=2.1 q=43.0 size=    1536KiB time=00:00:08.35 bitrate=1506.9kbits/s speed=0.0343x elapsed=0:04:03.38    \nframe=  506 fps=2.1 q=38.0 size=    1536KiB time=00:00:08.41 bitrate=1495.0kbits/s speed=0.0345x elapsed=0:04:03.91    \nframe=  508 fps=2.1 q=45.0 size=    1536KiB time=00:00:08.45 bitrate=1489.1kbits/s speed=0.0346x elapsed=0:04:04.54    \nframe=  510 fps=2.1 q=43.0 size=    1536KiB time=00:00:08.48 bitrate=1483.3kbits/s speed=0.0346x elapsed=0:04:05.05    \nframe=  512 fps=2.1 q=45.0 size=    1536KiB time=00:00:08.51 bitrate=1477.4kbits/s speed=0.0347x elapsed=0:04:05.57    \nframe=  514 fps=2.1 q=29.0 size=    1536KiB time=00:00:08.55 bitrate=1471.7kbits/s speed=0.0347x elapsed=0:04:06.08    \nframe=  514 fps=2.1 q=29.0 size=    1536KiB time=00:00:08.55 bitrate=1471.7kbits/s speed=0.0347x elapsed=0:04:06.60    \nframe=  514 fps=2.1 q=29.0 size=    1536KiB time=00:00:08.55 bitrate=1471.7kbits/s speed=0.0346x elapsed=0:04:07.12    \nframe=  514 fps=2.1 q=29.0 size=    1536KiB time=00:00:08.55 bitrate=1471.7kbits/s speed=0.0345x elapsed=0:04:07.63    \nframe=  514 fps=2.1 q=29.0 size=    1536KiB time=00:00:08.55 bitrate=1471.7kbits/s speed=0.0345x elapsed=0:04:08.14    \nframe=  514 fps=2.1 q=29.0 size=    1536KiB time=00:00:08.55 bitrate=1471.7kbits/s speed=0.0344x elapsed=0:04:08.66    \nframe=  514 fps=2.1 q=29.0 size=    1536KiB time=00:00:08.55 bitrate=1471.7kbits/s speed=0.0343x elapsed=0:04:09.17    \nframe=  514 fps=2.1 q=29.0 size=    1536KiB time=00:00:08.55 bitrate=1471.7kbits/s speed=0.0342x elapsed=0:04:09.70    \nframe=  518 fps=2.1 q=42.0 size=    1536KiB time=00:00:08.61 bitrate=1460.3kbits/s speed=0.0344x elapsed=0:04:10.21    \nframe=  520 fps=2.1 q=45.0 size=    1536KiB time=00:00:08.65 bitrate=1454.7kbits/s speed=0.0345x elapsed=0:04:10.73    \nframe=  522 fps=2.1 q=37.0 size=    1536KiB time=00:00:08.68 bitrate=1449.1kbits/s speed=0.0346x elapsed=0:04:11.24    \nframe=  522 fps=2.1 q=37.0 size=    1536KiB time=00:00:08.68 bitrate=1449.1kbits/s speed=0.0345x elapsed=0:04:11.76    \nframe=  522 fps=2.1 q=37.0 size=    1536KiB time=00:00:08.68 bitrate=1449.1kbits/s speed=0.0344x elapsed=0:04:12.26    \nframe=  526 fps=2.1 q=42.0 size=    1536KiB time=00:00:08.75 bitrate=1438.0kbits/s speed=0.0346x elapsed=0:04:12.79    \nframe=  528 fps=2.1 q=45.0 size=    1536KiB time=00:00:08.78 bitrate=1432.6kbits/s speed=0.0347x elapsed=0:04:13.30    \nframe=  530 fps=2.1 q=27.0 size=    1536KiB time=00:00:08.81 bitrate=1427.2kbits/s speed=0.0347x elapsed=0:04:13.81    \nframe=  530 fps=2.1 q=27.0 size=    1536KiB time=00:00:08.81 bitrate=1427.2kbits/s speed=0.0347x elapsed=0:04:14.33    \nframe=  530 fps=2.1 q=27.0 size=    1536KiB time=00:00:08.81 bitrate=1427.2kbits/s speed=0.0346x elapsed=0:04:14.85    \nframe=  530 fps=2.1 q=27.0 size=    1536KiB time=00:00:08.81 bitrate=1427.2kbits/s speed=0.0345x elapsed=0:04:15.37    \nframe=  530 fps=2.1 q=27.0 size=    1536KiB time=00:00:08.81 bitrate=1427.2kbits/s speed=0.0345x elapsed=0:04:15.89    \nframe=  532 fps=2.1 q=45.0 size=    1536KiB time=00:00:08.85 bitrate=1421.8kbits/s speed=0.0345x elapsed=0:04:16.39    \nframe=  534 fps=2.1 q=43.0 size=    1536KiB time=00:00:08.88 bitrate=1416.5kbits/s speed=0.0346x elapsed=0:04:16.91    \nframe=  538 fps=2.1 q=38.0 size=    1536KiB time=00:00:08.95 bitrate=1405.9kbits/s speed=0.0348x elapsed=0:04:17.43    \nframe=  538 fps=2.1 q=38.0 size=    1536KiB time=00:00:08.95 bitrate=1405.9kbits/s speed=0.0347x elapsed=0:04:17.94    \nframe=  542 fps=2.1 q=43.0 size=    1536KiB time=00:00:09.01 bitrate=1395.5kbits/s speed=0.0349x elapsed=0:04:18.46    \nframe=  546 fps=2.1 q=29.0 size=    1536KiB time=00:00:09.08 bitrate=1385.3kbits/s speed=0.0351x elapsed=0:04:18.98    \nframe=  546 fps=2.1 q=29.0 size=    1536KiB time=00:00:09.08 bitrate=1385.3kbits/s speed=0.035x elapsed=0:04:19.49    \nframe=  546 fps=2.1 q=29.0 size=    1536KiB time=00:00:09.08 bitrate=1385.3kbits/s speed=0.0349x elapsed=0:04:20.00    \nframe=  546 fps=2.1 q=29.0 size=    1536KiB time=00:00:09.08 bitrate=1385.3kbits/s speed=0.0349x elapsed=0:04:20.51    \nframe=  546 fps=2.1 q=29.0 size=    1536KiB time=00:00:09.08 bitrate=1385.3kbits/s speed=0.0348x elapsed=0:04:21.11    \nframe=  548 fps=2.1 q=45.0 size=    1536KiB time=00:00:09.08 bitrate=1385.3kbits/s speed=0.0347x elapsed=0:04:21.75    \nframe=  550 fps=2.1 q=43.0 size=    1536KiB time=00:00:09.15 bitrate=1375.2kbits/s speed=0.0349x elapsed=0:04:22.39    \nframe=  554 fps=2.1 q=38.0 size=    1536KiB time=00:00:09.21 bitrate=1365.2kbits/s speed=0.035x elapsed=0:04:22.96    \nframe=  554 fps=2.1 q=38.0 size=    1536KiB time=00:00:09.21 bitrate=1365.2kbits/s speed=0.035x elapsed=0:04:23.50    \nframe=  554 fps=2.1 q=38.0 size=    1536KiB time=00:00:09.21 bitrate=1365.2kbits/s speed=0.0349x elapsed=0:04:24.08    \nframe=  554 fps=2.1 q=38.0 size=    1536KiB time=00:00:09.21 bitrate=1365.2kbits/s speed=0.0348x elapsed=0:04:24.62    \nframe=  558 fps=2.1 q=42.0 size=    1536KiB time=00:00:09.28 bitrate=1355.4kbits/s speed=0.035x elapsed=0:04:25.14    \nframe=  558 fps=2.1 q=42.0 size=    1536KiB time=00:00:09.28 bitrate=1355.4kbits/s speed=0.0349x elapsed=0:04:25.66    \nframe=  562 fps=2.1 q=28.0 size=    1536KiB time=00:00:09.35 bitrate=1345.8kbits/s speed=0.0351x elapsed=0:04:26.17    \nframe=  562 fps=2.1 q=28.0 size=    1536KiB time=00:00:09.35 bitrate=1345.8kbits/s speed=0.0351x elapsed=0:04:26.70    \nframe=  562 fps=2.1 q=28.0 size=    1536KiB time=00:00:09.35 bitrate=1345.8kbits/s speed=0.035x elapsed=0:04:27.22    \nframe=  562 fps=2.1 q=28.0 size=    1536KiB time=00:00:09.35 bitrate=1345.8kbits/s speed=0.0349x elapsed=0:04:27.74    \nframe=  562 fps=2.1 q=28.0 size=    1536KiB time=00:00:09.35 bitrate=1345.8kbits/s speed=0.0349x elapsed=0:04:28.26    \nframe=  562 fps=2.1 q=28.0 size=    1536KiB time=00:00:09.35 bitrate=1345.8kbits/s speed=0.0348x elapsed=0:04:28.79    \nframe=  566 fps=2.1 q=42.0 size=    1536KiB time=00:00:09.41 bitrate=1336.2kbits/s speed=0.035x elapsed=0:04:29.33    \nframe=  568 fps=2.1 q=44.0 size=    1536KiB time=00:00:09.45 bitrate=1331.5kbits/s speed=0.035x elapsed=0:04:29.85    \nframe=  570 fps=2.1 q=38.0 size=    1536KiB time=00:00:09.48 bitrate=1326.8kbits/s speed=0.0351x elapsed=0:04:30.50    \nframe=  572 fps=2.1 q=44.0 size=    1536KiB time=00:00:09.48 bitrate=1326.8kbits/s speed=0.035x elapsed=0:04:31.30    \nframe=  574 fps=2.1 q=42.0 size=    1536KiB time=00:00:09.55 bitrate=1317.6kbits/s speed=0.0351x elapsed=0:04:32.12    \nframe=  578 fps=2.1 q=29.0 size=    1536KiB time=00:00:09.61 bitrate=1308.4kbits/s speed=0.0352x elapsed=0:04:33.05    \nframe=  578 fps=2.1 q=29.0 size=    1536KiB time=00:00:09.61 bitrate=1308.4kbits/s speed=0.0351x elapsed=0:04:33.62    \nframe=  578 fps=2.1 q=29.0 size=    1536KiB time=00:00:09.61 bitrate=1308.4kbits/s speed=0.0351x elapsed=0:04:34.16    \nframe=  580 fps=2.1 q=45.0 size=    1536KiB time=00:00:09.61 bitrate=1308.4kbits/s speed=0.035x elapsed=0:04:34.74    \nframe=  582 fps=2.1 q=43.0 size=    1536KiB time=00:00:09.68 bitrate=1299.4kbits/s speed=0.0352x elapsed=0:04:35.31    \nframe=  584 fps=2.1 q=46.0 size=    1536KiB time=00:00:09.71 bitrate=1295.0kbits/s speed=0.0352x elapsed=0:04:35.90    \nframe=  586 fps=2.1 q=39.0 size=    1536KiB time=00:00:09.75 bitrate=1290.6kbits/s speed=0.0353x elapsed=0:04:36.44    \nframe=  586 fps=2.1 q=39.0 size=    1536KiB time=00:00:09.75 bitrate=1290.6kbits/s speed=0.0352x elapsed=0:04:36.96    \nframe=  590 fps=2.1 q=46.0 size=    1536KiB time=00:00:09.81 bitrate=1281.8kbits/s speed=0.0354x elapsed=0:04:37.53    \n[out#0/matroska @ 00000287d6ec8ec0] video:2444KiB audio:0KiB subtitle:0KiB other streams:0KiB global headers:0KiB muxing overhead: 0.135761%\nframe=  600 fps=2.2 q=45.0 Lsize=    2447KiB time=00:00:09.98 bitrate=2007.8kbits/s speed=0.0359x elapsed=0:04:38.00    \n",
  "seconds": 280.3007433414459,
  "probe_out": {}
}